<svg xmlns="http://www.w3.org/2000/svg" viewBox="0 0 220 200" role="img">
<rect x="0" y="80" width="220" height="40" fill="#8a9099"/><rect x="90" y="0" width="40" height="200" fill="#8a9099"/><polygon points="90.0,73.0 83.0,80.0 73.0,80.0 66.0,73.0 66.0,63.0 73.0,56.0 83.0,56.0 90.0,63.0" fill="#b3261e" stroke="#fff" stroke-width="1.5"/><text x="78" y="71" font-family="Arial" font-size="7" font-weight="bold" fill="#fff" text-anchor="middle">STOP</text><polygon points="154.0,73.0 147.0,80.0 137.0,80.0 130.0,73.0 130.0,63.0 137.0,56.0 147.0,56.0 154.0,63.0" fill="#b3261e" stroke="#fff" stroke-width="1.5"/><text x="142" y="71" font-family="Arial" font-size="7" font-weight="bold" fill="#fff" text-anchor="middle">STOP</text><polygon points="90.0,137.0 83.0,144.0 73.0,144.0 66.0,137.0 66.0,127.0 73.0,120.0 83.0,120.0 90.0,127.0" fill="#b3261e" stroke="#fff" stroke-width="1.5"/><text x="78" y="135" font-family="Arial" font-size="7" font-weight="bold" fill="#fff" text-anchor="middle">STOP</text><polygon points="154.0,137.0 147.0,144.0 137.0,144.0 130.0,137.0 130.0,127.0 137.0,120.0 147.0,120.0 154.0,127.0" fill="#b3261e" stroke="#fff" stroke-width="1.5"/><text x="142" y="135" font-family="Arial" font-size="7" font-weight="bold" fill="#fff" text-anchor="middle">STOP</text>
</svg>
