<svg xmlns="http://www.w3.org/2000/svg" viewBox="0 0 220 150" role="img">
<rect x="0" y="0" width="220" height="150" fill="#8a9099"/><rect x="0" y="72" width="220" height="4" fill="#f2c200"/><g transform="translate(120,96) scale(1.15)"><rect x="2" y="12" width="64" height="16" rx="6" fill="#1c5d99"/><path d="M14 12 q6-10 20-10 h10 q10 0 16 10 z" fill="#1c5d99"/><rect x="20" y="4" width="22" height="9" rx="2" fill="#cfe8ff"/><circle cx="16" cy="28" r="6" fill="#1a1f29"/><circle cx="52" cy="28" r="6" fill="#1a1f29"/></g><g transform="translate(20,20) scale(1.15)"><rect x="2" y="12" width="64" height="16" rx="6" fill="#b3261e"/><path d="M14 12 q6-10 20-10 h10 q10 0 16 10 z" fill="#b3261e"/><rect x="20" y="4" width="22" height="9" rx="2" fill="#cfe8ff"/><circle cx="16" cy="28" r="6" fill="#1a1f29"/><circle cx="52" cy="28" r="6" fill="#1a1f29"/></g><rect x="40" y="14" width="12" height="6" rx="2" fill="#e8a200"/><path d="M92 34 h20 M92 40 h14" stroke="#ffffff" stroke-width="2"/>
</svg>
