<svg xmlns="http://www.w3.org/2000/svg" viewBox="0 0 220 200" role="img">
<rect x="0" y="80" width="220" height="40" fill="#8a9099"/><rect x="90" y="0" width="40" height="200" fill="#8a9099"/><g transform="translate(110,42) rotate(180)"><rect x="-16" y="-26" width="32" height="54" rx="9" fill="#1f7a45"/><polygon points="-11,-26 11,-26 0,-34" fill="#1f7a45"/><rect x="-12" y="-20" width="24" height="14" rx="3" fill="#cfe8ff"/><rect x="-12" y="-32" width="6" height="4" rx="1" fill="#ffe08a"/><rect x="6" y="-32" width="6" height="4" rx="1" fill="#ffe08a"/></g><path d="M132 40 v34" stroke="#1f7a45" stroke-width="4" fill="none"/><path d="M132 78 l-5 -8 l10 0 z" fill="#1f7a45"/><g transform="translate(110,158) rotate(0)"><rect x="-16" y="-26" width="32" height="54" rx="9" fill="#1c5d99"/><polygon points="-11,-26 11,-26 0,-34" fill="#1c5d99"/><rect x="-12" y="-20" width="24" height="14" rx="3" fill="#cfe8ff"/><rect x="-12" y="-32" width="6" height="4" rx="1" fill="#ffe08a"/><rect x="6" y="-32" width="6" height="4" rx="1" fill="#ffe08a"/></g><path d="M88 158 q-34 0 -34 -34" stroke="#1c5d99" stroke-width="4" fill="none"/><path d="M54 128 l-5 8 l10 0 z" fill="#1c5d99"/>
</svg>
