<svg xmlns="http://www.w3.org/2000/svg" viewBox="0 0 220 150" role="img">
<rect x="0" y="0" width="220" height="150" fill="#8a9099"/><rect x="150" y="10" width="6" height="130" fill="#ffffff"/><rect x="160" y="10" width="6" height="130" fill="#ffffff"/><rect x="170" y="10" width="6" height="130" fill="#ffffff"/><rect x="180" y="10" width="6" height="130" fill="#ffffff"/><rect x="190" y="10" width="6" height="130" fill="#ffffff"/><rect x="200" y="10" width="6" height="130" fill="#ffffff"/><g fill="#1a1f29"><circle cx="168" cy="45" r="9"/><rect x="163" y="54" width="10" height="26" rx="3"/><rect x="150" y="82" width="8" height="26" rx="3" transform="rotate(20 154 95)"/><rect x="176" y="82" width="8" height="26" rx="3" transform="rotate(-20 180 95)"/></g><g transform="translate(20,60) scale(1.2)"><rect x="2" y="12" width="64" height="16" rx="6" fill="#1c5d99"/><path d="M14 12 q6-10 20-10 h10 q10 0 16 10 z" fill="#1c5d99"/><rect x="20" y="4" width="22" height="9" rx="2" fill="#cfe8ff"/><circle cx="16" cy="28" r="6" fill="#1a1f29"/><circle cx="52" cy="28" r="6" fill="#1a1f29"/></g><rect x="120" y="70" width="8" height="40" fill="#ffffff"/>
</svg>
