<svg xmlns="http://www.w3.org/2000/svg" viewBox="0 0 200 200" role="img">
<rect x="0" y="0" width="200" height="200" fill="#ffffff"/><rect x="85" y="0" width="30" height="200" fill="#8a9099"/><rect x="0" y="85" width="200" height="30" fill="#8a9099"/><circle cx="100" cy="100" r="55" fill="#8a9099"/><circle cx="100" cy="100" r="26" fill="#1f7a45"/><path d="M142 100 l6 -6 l2 12 l-12 -2 z" fill="#1a1f29" transform="rotate(90 142 100)"/><path d="M100 142 l6 -6 l2 12 l-12 -2 z" fill="#1a1f29" transform="rotate(180 100 142)"/><path d="M58 100 l6 -6 l2 12 l-12 -2 z" fill="#1a1f29" transform="rotate(270 58 100)"/><path d="M100 58 l6 -6 l2 12 l-12 -2 z" fill="#1a1f29" transform="rotate(360 100 58)"/><circle cx="100" cy="100" r="42" fill="none" stroke="#ffffff" stroke-width="2" stroke-dasharray="6 6"/>
</svg>
