<svg xmlns="http://www.w3.org/2000/svg" viewBox="0 0 220 150" role="img">
<rect x="0" y="70" width="220" height="70" fill="#8a9099"/><rect x="0" y="102" width="220" height="5" fill="#f2c200" opacity=".0"/><g transform="translate(150,78) scale(1.15)"><rect x="2" y="12" width="64" height="16" rx="6" fill="#1c5d99"/><path d="M14 12 q6-10 20-10 h10 q10 0 16 10 z" fill="#1c5d99"/><rect x="20" y="4" width="22" height="9" rx="2" fill="#cfe8ff"/><circle cx="16" cy="28" r="6" fill="#1a1f29"/><circle cx="52" cy="28" r="6" fill="#1a1f29"/></g><g transform="translate(6,78) scale(1.15)"><rect x="2" y="12" width="64" height="16" rx="6" fill="#13315c"/><path d="M14 12 q6-10 20-10 h10 q10 0 16 10 z" fill="#13315c"/><rect x="20" y="4" width="22" height="9" rx="2" fill="#cfe8ff"/><circle cx="16" cy="28" r="6" fill="#1a1f29"/><circle cx="52" cy="28" r="6" fill="#1a1f29"/></g><path d="M78 120 h64" stroke="#ffffff" stroke-width="2" stroke-dasharray="6 6"/><rect x="86" y="26" width="48" height="26" rx="6" fill="#1f7a45"/><text x="110" y="45" font-family="Arial" font-size="16" font-weight="bold" fill="#fff" text-anchor="middle">4 s</text>
</svg>
