<svg xmlns="http://www.w3.org/2000/svg" viewBox="0 0 220 150" role="img">
<rect x="0" y="0" width="220" height="150" fill="#bfe0ef"/><g transform="translate(70,54) scale(1.25)"><rect x="2" y="12" width="64" height="16" rx="6" fill="#1c5d99"/><path d="M14 12 q6-10 20-10 h10 q10 0 16 10 z" fill="#1c5d99"/><rect x="20" y="4" width="22" height="9" rx="2" fill="#cfe8ff"/><circle cx="16" cy="28" r="6" fill="#1a1f29"/><circle cx="52" cy="28" r="6" fill="#1a1f29"/></g><path d="M0 120 q14 -8 28 0 t28 0 t28 0 t28 0 t28 0 t28 0 t28 0 t28 0" stroke="#1c5d99" stroke-width="3" fill="none" opacity=".7"/><path d="M0 132 q14 -8 28 0 t28 0 t28 0 t28 0 t28 0 t28 0 t28 0 t28 0" stroke="#1c5d99" stroke-width="3" fill="none" opacity=".7"/><path d="M150 116 l6 -12 M158 118 l10 -8 M92 116 l-6 -12" stroke="#ffffff" stroke-width="3"/>
</svg>
